<?xml version="1.0" encoding="UTF-8" standalone="no"?>
<!-- Generator: Adobe Illustrator 16.0.0, SVG Export Plug-In . SVG Version: 6.00 Build 0)  -->

<svg
   xmlns:dc="http://purl.org/dc/elements/1.1/"
   xmlns:cc="http://creativecommons.org/ns#"
   xmlns:rdf="http://www.w3.org/1999/02/22-rdf-syntax-ns#"
   xmlns:svg="http://www.w3.org/2000/svg"
   xmlns="http://www.w3.org/2000/svg"
   xmlns:sodipodi="http://sodipodi.sourceforge.net/DTD/sodipodi-0.dtd"
   xmlns:inkscape="http://www.inkscape.org/namespaces/inkscape"
   version="1.1"
   id="Layer_1"
   x="0px"
   y="0px"
   width="24px"
   height="24px"
   viewBox="0 0 24 24"
   enable-background="new 0 0 24 24"
   xml:space="preserve"
   inkscape:version="0.48.4 r9939"
   sodipodi:docname="location.svg"
   inkscape:export-filename="/home/sbrunner/workspace/gc_ol/image/location24.png"
   inkscape:export-xdpi="90"
   inkscape:export-ydpi="90"><metadata
     id="metadata9"><rdf:RDF><cc:Work
         rdf:about=""><dc:format>image/svg+xml</dc:format><dc:type
           rdf:resource="http://purl.org/dc/dcmitype/StillImage" /><dc:title></dc:title></cc:Work></rdf:RDF></metadata><defs
     id="defs7" /><sodipodi:namedview
     pagecolor="#ffffff"
     bordercolor="#666666"
     borderopacity="1"
     objecttolerance="10"
     gridtolerance="10"
     guidetolerance="10"
     inkscape:pageopacity="0"
     inkscape:pageshadow="2"
     inkscape:window-width="640"
     inkscape:window-height="480"
     id="namedview5"
     showgrid="false"
     inkscape:zoom="9.8333333"
     inkscape:cx="12"
     inkscape:cy="12"
     inkscape:window-x="560"
     inkscape:window-y="294"
     inkscape:window-maximized="0"
     inkscape:current-layer="Layer_1" /><path
     fill="#223982"
     d="M11.513,12.38c-2.117,0-3.835-1.729-3.835-3.862c0-2.135,1.718-3.863,3.835-3.863  c2.117,0,3.834,1.729,3.834,3.863C15.348,10.65,13.63,12.38,11.513,12.38 M11.513,0C6.825,0,3.025,3.827,3.025,8.549  c0,4.46,3.844,10.213,6.411,13.014c0.959,1.045,2.076,2.455,2.076,2.455s1.2-1.418,2.229-2.494C16.307,18.84,20,13.451,20,8.549  C20,3.827,16.2,0,11.513,0"
     id="path3" /></svg>